PathFileType	4	(X/Y/Z)	/Users/itak/Documents/Research/Walk-IL/dataset/trc/00567_00009.trc
DataRate	CameraRate	NumFrames	NumMarkers	Units	OrigDataRate	OrigDataStartFrame	OrigNumFrames
100.000000	100.000000	4	53	mm	100.000000	335	447
Frame#	Time	RPSI			LPSI			L3			STRN			T10			C7			CLAV			RBAK			LBAK			LSHO			LUPA			LAEL			LAOL			LWTS			LWPS			LFRA			LHPS			LHTS			RSHO			RUPA			RAEL			RAOL			RWTS			RWPS			RFRA			RIFD			RHTS			RHPS			RBHD			LFHD			RFHD			LBHD			LHIP			RHIP			RASI			LASI			LKNE			LTHI			LANK			LTIP			LTOE			LMT1			LMT5			LHEE			RKNE			RTHI			RANK			RTIP			RTOE			RMT1			RMT5			RHEE			LIFD			
		X1	Y1	Z1	X2	Y2	Z2	X3	Y3	Z3	X4	Y4	Z4	X5	Y5	Z5	X6	Y6	Z6	X7	Y7	Z7	X8	Y8	Z8	X9	Y9	Z9	X10	Y10	Z10	X11	Y11	Z11	X12	Y12	Z12	X13	Y13	Z13	X14	Y14	Z14	X15	Y15	Z15	X16	Y16	Z16	X17	Y17	Z17	X18	Y18	Z18	X19	Y19	Z19	X20	Y20	Z20	X21	Y21	Z21	X22	Y22	Z22	X23	Y23	Z23	X24	Y24	Z24	X25	Y25	Z25	X26	Y26	Z26	X27	Y27	Z27	X28	Y28	Z28	X29	Y29	Z29	X30	Y30	Z30	X31	Y31	Z31	X32	Y32	Z32	X33	Y33	Z33	X34	Y34	Z34	X35	Y35	Z35	X36	Y36	Z36	X37	Y37	Z37	X38	Y38	Z38	X39	Y39	Z39	X40	Y40	Z40	X41	Y41	Z41	X42	Y42	Z42	X43	Y43	Z43	X44	Y44	Z44	X45	Y45	Z45	X46	Y46	Z46	X47	Y47	Z47	X48	Y48	Z48	X49	Y49	Z49	X50	Y50	Z50	X51	Y51	Z51	X52	Y52	Z52	X53	Y53	Z53	

336	3.35	255.0447845458984	1013.37158203125	1034.642456054688	388.9193115234375	1018.94140625	1045.108764648438	327.7214965820312	1113.541137695312	1044.052001953125	318.0810241699219	1300.37060546875	1282.046630859375	333.3292236328125	1239.381713867188	1039.558227539062	318.4154968261719	1514.266357421875	1092.297973632812	317.8176574707031	1411.520263671875	1264.69384765625	237.1364898681641	1388.523071289062	1015.536743164062	413.2199401855469	1462.081420898438	1062.954345703125	488.4287719726562	1485.829833984375	1166.85546875	570.834716796875	1361.656127929688	1170.791015625	602.0159301757812	1147.242065429688	1217.1640625	557.9236450195312	1122.354125976562	1129.095336914062	552.8653564453125	934.9312744140625	1359.551513671875	624.8179931640625	901.3217163085938	1324.089965820312	609.137939453125	1068.926513671875	1257.67041015625	616.4127197265625	845.4030151367188	1346.493896484375	572.5525512695312	864.5435180664062	1395.24267578125	159.1168365478516	1476.41015625	1139.670532226562	91.6285400390625	1410.815551757812	1117.724243164062	48.4175910949707	1121.562866210938	1114.362182617188	81.06942749023438	1099.9443359375	1064.521728515625	75.50468444824219	925.958984375	1282.132202148438	15.74214458465576	894.6412963867188	1232.93798828125	41.75809860229492	1066.699584960938	1129.049072265625	76.40782165527344	757.1657104492188	1320.80078125	58.69791412353516	840.4203491210938	1323.31005859375	19.02081871032715	824.9876708984375	1262.548461914062	243.6757507324219	1695.593627929688	1190.407348632812	374.3675842285156	1698.805541992188	1351.96728515625	231.975341796875	1696.674194335938	1330.437622070312	406.4878540039062	1695.6962890625	1221.859619140625	511.5317993164062	944.5306396484375	1185.680786132812	124.8652191162109	947.785400390625	1153.659912109375	176.9586486816406	983.6602783203125	1241.825073242188	451.8034057617188	972.3261108398438	1256.217529296875	431.500244140625	507.1150817871094	1262.986572265625	470.9285278320312	670.8787841796875	1244.379760742188	421.732666015625	36.37010192871094	1183.373901367188	432.7810668945312	255.7131195068359	1209.041381835938	336.4474182128906	43.95674514770508	1388.59228515625	311.1180114746094	48.82934188842773	1311.177368164062	422.0831909179688	39.60543060302734	1306.412109375	374.5421142578125	40.61601257324219	1110.233642578125	155.7396240234375	515.796142578125	1265.38427734375	122.3332366943359	800.7161865234375	1215.693359375	184.4276580810547	55.00033569335938	1111.713500976562	167.5777893066406	369.7945556640625	1246.2216796875	209.4325103759766	76.99887084960938	1325.974609375	255.5463104248047	64.48825073242188	1267.316528320312	156.3192749023438	61.93790054321289	1238.468383789062	241.0499267578125	48.95450592041016	1060.186645507812	552.7555541992188	769.607666015625	1396.654052734375	
337	3.36	254.3300323486328	1013.33154296875	1037.924682617188	388.212890625	1018.895568847656	1048.233642578125	327.0120544433594	1113.459594726562	1047.117431640625	317.8546752929688	1300.46533203125	1284.974853515625	332.6807556152344	1239.3271484375	1042.442138671875	318.0232849121094	1514.222534179688	1095.067260742188	317.6566772460938	1411.6005859375	1267.533447265625	236.494873046875	1388.46728515625	1018.493408203125	412.756103515625	1461.963012695312	1065.611328125	488.1518859863281	1485.732543945312	1169.380737304688	570.4822387695312	1361.49072265625	1173.2939453125	601.5697021484375	1147.125122070312	1219.894653320312	557.393310546875	1122.118896484375	1131.89892578125	552.2020263671875	935.2939453125	1362.862426757812	624.0518798828125	901.4813842773438	1327.465698242188	608.5929565429688	1068.903198242188	1260.58349609375	615.5645751953125	845.6244506835938	1350.07373046875	571.7933959960938	865.0545654296875	1398.810913085938	158.7664031982422	1476.485473632812	1142.7451171875	91.22138214111328	1410.856811523438	1121.024658203125	48.08026885986328	1121.541015625	1118.250732421875	80.62834930419922	1099.918334960938	1068.250610351562	76.12063598632812	925.9768676757812	1285.947387695312	16.1153621673584	894.6328735351562	1237.055297851562	41.55229949951172	1066.676391601562	1133.003051757812	77.35050201416016	757.1728515625	1324.5556640625	59.56356811523438	840.4172973632812	1327.207153320312	19.65235710144043	824.9618530273438	1266.599365234375	243.5072784423828	1695.668579101562	1193.377075195312	374.2182312011719	1698.626586914062	1354.924438476562	231.8213348388672	1696.531372070312	1333.41357421875	406.3136596679688	1695.686157226562	1224.8095703125	510.9710693359375	944.5579833984375	1188.640625	124.2897338867188	947.7998046875	1157.0029296875	176.4463500976562	983.6837768554688	1245.232788085938	451.3172302246094	972.3438720703125	1259.264282226562	431.1744384765625	506.8980712890625	1264.82275390625	470.5568237304688	670.8644409179688	1246.525268554688	421.6232299804688	36.41733169555664	1183.387451171875	432.5620727539062	255.7015380859375	1209.8701171875	336.4677734375	43.87514495849609	1388.67578125	311.0494995117188	48.72359085083008	1311.197387695312	422.064208984375	39.61164093017578	1306.416748046875	374.4232482910156	40.73880386352539	1110.232421875	156.0170745849609	515.45361328125	1267.798950195312	121.6997299194336	800.3699951171875	1218.733642578125	183.6632995605469	53.04105758666992	1119.0517578125	167.927978515625	369.226318359375	1250.099487304688	211.1614685058594	75.39962005615234	1333.146362304688	256.5430908203125	63.18353652954102	1273.865234375	157.0264282226562	60.32433319091797	1246.214599609375	239.6609649658203	46.71430206298828	1066.97607421875	551.8508911132812	770.1616821289062	1400.59326171875	
338	3.37	253.5766906738281	1013.225524902344	1041.172607421875	387.4637756347656	1018.816345214844	1051.323852539062	326.2389831542969	1113.31494140625	1050.1455078125	317.5783996582031	1300.54931640625	1287.807006835938	331.9533386230469	1239.208129882812	1045.258544921875	317.5567016601562	1514.127685546875	1097.695068359375	317.4527282714844	1411.666625976562	1270.254638671875	235.7670593261719	1388.341186523438	1021.347595214844	412.2027893066406	1461.78369140625	1068.119384765625	487.8160400390625	1485.588256835938	1171.730712890625	570.06689453125	1361.26953125	1175.590698242188	601.052978515625	1146.938110351562	1222.376342773438	556.7515258789062	1121.8388671875	1134.477783203125	551.5159912109375	935.5431518554688	1365.888061523438	623.2567749023438	901.5315551757812	1330.505981445312	607.9876098632812	1068.792358398438	1263.222045898438	614.681884765625	845.7199096679688	1353.312255859375	571.0242919921875	865.4185180664062	1402.049560546875	158.3508605957031	1476.521240234375	1145.71240234375	90.73887634277344	1410.857421875	1124.238525390625	47.67177963256836	1121.472900390625	1122.107666015625	80.11389923095703	1099.850219726562	1071.943359375	76.66436767578125	925.8231811523438	1289.611938476562	16.40467071533203	894.5093994140625	1241.007202148438	41.26874160766602	1066.601806640625	1136.909912109375	78.21681976318359	756.9724731445312	1328.007446289062	60.36943817138672	840.2066040039062	1330.876342773438	20.1810302734375	824.7955322265625	1270.434692382812	243.2991180419922	1695.720703125	1196.191162109375	374.060791015625	1698.446411132812	1357.696166992188	231.6541290283203	1696.392822265625	1336.23046875	406.1102905273438	1695.652099609375	1227.575073242188	510.3696899414062	944.589111328125	1191.578735351562	123.6787796020508	947.7501220703125	1160.297607421875	175.8924560546875	983.6439208984375	1248.606323242188	450.7974243164062	972.3616943359375	1262.28759765625	430.8300170898438	506.6799926757812	1266.677368164062	470.1138610839844	670.8267822265625	1248.74365234375	421.5115966796875	36.46233367919922	1183.408203125	432.3425598144531	255.6904907226562	1210.705444335938	336.4831237792969	43.79255294799805	1388.757202148438	310.988037109375	48.62936019897461	1311.2060546875	422.0450744628906	39.61787414550781	1306.42138671875	374.3012084960938	40.87292098999023	1110.226806640625	156.3473510742188	515.015625	1270.103759765625	121.1126098632812	799.9288330078125	1221.745727539062	182.9618377685547	51.49901962280273	1125.204223632812	168.3387298583984	368.6139831542969	1253.609130859375	212.9779968261719	73.03005218505859	1339.27587890625	257.6079406738281	61.49975967407227	1279.2626953125	157.7838134765625	58.54205322265625	1252.827026367188	238.3296813964844	45.07269668579102	1072.559936523438	550.9432373046875	770.598876953125	1404.188232421875	
339	3.38	252.7782135009766	1013.056945800781	1044.386596679688	386.6664428710938	1018.708190917969	1054.3759765625	325.396240234375	1113.109741210938	1053.135375976562	317.2518615722656	1300.622192382812	1290.547485351562	331.1446228027344	1239.023071289062	1048.015625	317.0181884765625	1513.984619140625	1100.189453125	317.2037048339844	1411.717163085938	1272.864013671875	234.9595947265625	1388.151000976562	1024.101318359375	411.5618591308594	1461.546997070312	1070.48681640625	487.4211730957031	1485.397216796875	1173.915283203125	569.5870361328125	1360.994384765625	1177.6953125	600.4664306640625	1146.680541992188	1224.62109375	556.0003051757812	1121.5166015625	1136.842407226562	550.8065185546875	935.67138671875	1368.630737304688	622.4340209960938	901.467041015625	1333.215576171875	607.32421875	1068.592651367188	1265.596923828125	613.7700805664062	845.685791015625	1356.207397460938	570.2476196289062	865.632080078125	1404.959350585938	157.8716278076172	1476.51904296875	1148.5751953125	90.18439483642578	1410.8193359375	1127.363647460938	47.19038009643555	1121.363037109375	1125.919067382812	79.52519226074219	1099.741577148438	1075.586669921875	77.12708282470703	925.5159912109375	1293.123168945312	16.60506248474121	894.2822875976562	1244.791625976562	40.90536117553711	1066.480712890625	1140.755859375	78.99028015136719	756.5864868164062	1331.171997070312	61.10549163818359	839.8099975585938	1334.32177734375	20.59893989562988	824.5040283203125	1274.060546875	243.0504913330078	1695.747802734375	1198.848510742188	373.8920593261719	1698.273193359375	1360.283813476562	231.4711608886719	1696.265625	1338.888061523438	405.8760681152344	1695.595947265625	1230.157958984375	509.7237854003906	944.627197265625	1194.489135742188	123.034553527832	947.635498046875	1163.547241210938	175.3021545410156	983.5326538085938	1251.94580078125	450.2510070800781	972.3805541992188	1265.284057617188	430.4766540527344	506.4612426757812	1268.525756835938	469.6142578125	670.76611328125	1251.006958007812	421.3965759277344	36.50971221923828	1183.435913085938	432.1228332519531	255.6828918457031	1211.532836914062	336.4940795898438	43.71096038818359	1388.835815429688	310.9411010742188	48.55836486816406	1311.205932617188	422.025634765625	39.62389373779297	1306.425415039062	374.1781616210938	41.01885604858398	1110.218994140625	156.7308197021484	514.4758911132812	1272.269653320312	120.5929794311523	799.3984985351562	1224.732543945312	182.3536224365234	50.33809661865234	1130.203002929688	168.8026885986328	367.9480590820312	1256.7333984375	214.7765960693359	69.97628021240234	1344.42431640625	258.6681213378906	59.47284698486328	1283.59814453125	158.5418548583984	56.63964080810547	1258.325439453125	237.1087036132812	43.95235443115234	1076.9970703125	550.0341186523438	770.9047241210938	1407.4287109375	
